<mxfile host="app.diagrams.net" modified="2023-04-23T11:23:13.329Z" agent="Mozilla/5.0 (Windows NT 10.0; Win64; x64; rv:109.0) Gecko/20100101 Firefox/112.0" etag="ZPWPG1E_xsAakeBNDgmM" version="21.2.1" type="device">
  <diagram id="R2lEEEUBdFMjLlhIrx00" name="Page-1">
    <mxGraphModel dx="2045" dy="622" grid="1" gridSize="10" guides="1" tooltips="1" connect="1" arrows="1" fold="1" page="1" pageScale="1" pageWidth="850" pageHeight="1100" math="0" shadow="0" extFonts="Permanent Marker^https://fonts.googleapis.com/css?family=Permanent+Marker">
      <root>
        <mxCell id="0" />
        <mxCell id="1" parent="0" />
        <mxCell id="C-vyLk0tnHw3VtMMgP7b-1" value="" style="edgeStyle=entityRelationEdgeStyle;endArrow=ERzeroToMany;startArrow=ERone;endFill=1;startFill=0;entryX=0;entryY=0.5;entryDx=0;entryDy=0;" parent="1" source="C-vyLk0tnHw3VtMMgP7b-24" target="ffF4CEy4OYEndS1bbZnX-5" edge="1">
          <mxGeometry width="100" height="100" relative="1" as="geometry">
            <mxPoint x="340" y="720" as="sourcePoint" />
            <mxPoint x="450" y="195" as="targetPoint" />
          </mxGeometry>
        </mxCell>
        <mxCell id="C-vyLk0tnHw3VtMMgP7b-23" value="car_rental" style="shape=table;startSize=30;container=1;collapsible=1;childLayout=tableLayout;fixedRows=1;rowLines=0;fontStyle=1;align=center;resizeLast=1;" parent="1" vertex="1">
          <mxGeometry x="40" y="50" width="331" height="250" as="geometry" />
        </mxCell>
        <mxCell id="C-vyLk0tnHw3VtMMgP7b-24" value="" style="shape=partialRectangle;collapsible=0;dropTarget=0;pointerEvents=0;fillColor=none;points=[[0,0.5],[1,0.5]];portConstraint=eastwest;top=0;left=0;right=0;bottom=1;" parent="C-vyLk0tnHw3VtMMgP7b-23" vertex="1">
          <mxGeometry y="30" width="331" height="30" as="geometry" />
        </mxCell>
        <mxCell id="C-vyLk0tnHw3VtMMgP7b-25" value="PK" style="shape=partialRectangle;overflow=hidden;connectable=0;fillColor=none;top=0;left=0;bottom=0;right=0;fontStyle=1;" parent="C-vyLk0tnHw3VtMMgP7b-24" vertex="1">
          <mxGeometry width="29" height="30" as="geometry">
            <mxRectangle width="29" height="30" as="alternateBounds" />
          </mxGeometry>
        </mxCell>
        <mxCell id="C-vyLk0tnHw3VtMMgP7b-26" value="rental_id NOT NULL autoincrement" style="shape=partialRectangle;overflow=hidden;connectable=0;fillColor=none;top=0;left=0;bottom=0;right=0;align=left;spacingLeft=6;fontStyle=5;" parent="C-vyLk0tnHw3VtMMgP7b-24" vertex="1">
          <mxGeometry x="29" width="302" height="30" as="geometry">
            <mxRectangle width="302" height="30" as="alternateBounds" />
          </mxGeometry>
        </mxCell>
        <mxCell id="C-vyLk0tnHw3VtMMgP7b-27" value="" style="shape=partialRectangle;collapsible=0;dropTarget=0;pointerEvents=0;fillColor=none;points=[[0,0.5],[1,0.5]];portConstraint=eastwest;top=0;left=0;right=0;bottom=0;" parent="C-vyLk0tnHw3VtMMgP7b-23" vertex="1">
          <mxGeometry y="60" width="331" height="130" as="geometry" />
        </mxCell>
        <mxCell id="C-vyLk0tnHw3VtMMgP7b-28" value="" style="shape=partialRectangle;overflow=hidden;connectable=0;fillColor=none;top=0;left=0;bottom=0;right=0;" parent="C-vyLk0tnHw3VtMMgP7b-27" vertex="1">
          <mxGeometry width="29" height="130" as="geometry">
            <mxRectangle width="29" height="130" as="alternateBounds" />
          </mxGeometry>
        </mxCell>
        <mxCell id="C-vyLk0tnHw3VtMMgP7b-29" value="&#xa;car_rental_name char(50) NOT NULL&#xa;car_remtan_domain char(50)NOT NULL&#xa;car_rental_address char(50)NOT NULL&#xa;car_rental_admin_ employee_id NOT NULL&#xa;car_rental_owner_ employee_id NOT NULL&#xa;car_rental_logotype char(50)&#xa;owner_id int&#xa;admin_id int&#xa;&#xa;" style="shape=partialRectangle;overflow=hidden;connectable=0;fillColor=none;top=0;left=0;bottom=0;right=0;align=left;spacingLeft=6;" parent="C-vyLk0tnHw3VtMMgP7b-27" vertex="1">
          <mxGeometry x="29" width="302" height="130" as="geometry">
            <mxRectangle width="302" height="130" as="alternateBounds" />
          </mxGeometry>
        </mxCell>
        <mxCell id="ffF4CEy4OYEndS1bbZnX-1" value="department" style="shape=table;startSize=30;container=1;collapsible=1;childLayout=tableLayout;fixedRows=1;rowLines=0;fontStyle=1;align=center;resizeLast=1;" parent="1" vertex="1">
          <mxGeometry x="520" y="20" width="280" height="150" as="geometry" />
        </mxCell>
        <mxCell id="ffF4CEy4OYEndS1bbZnX-2" value="" style="shape=partialRectangle;collapsible=0;dropTarget=0;pointerEvents=0;fillColor=none;points=[[0,0.5],[1,0.5]];portConstraint=eastwest;top=0;left=0;right=0;bottom=1;" parent="ffF4CEy4OYEndS1bbZnX-1" vertex="1">
          <mxGeometry y="30" width="280" height="30" as="geometry" />
        </mxCell>
        <mxCell id="ffF4CEy4OYEndS1bbZnX-3" value="PK" style="shape=partialRectangle;overflow=hidden;connectable=0;fillColor=none;top=0;left=0;bottom=0;right=0;fontStyle=1;" parent="ffF4CEy4OYEndS1bbZnX-2" vertex="1">
          <mxGeometry width="29" height="30" as="geometry">
            <mxRectangle width="29" height="30" as="alternateBounds" />
          </mxGeometry>
        </mxCell>
        <mxCell id="ffF4CEy4OYEndS1bbZnX-4" value="department_id NOT NULL autoincrement" style="shape=partialRectangle;overflow=hidden;connectable=0;fillColor=none;top=0;left=0;bottom=0;right=0;align=left;spacingLeft=6;fontStyle=5;" parent="ffF4CEy4OYEndS1bbZnX-2" vertex="1">
          <mxGeometry x="29" width="251" height="30" as="geometry">
            <mxRectangle width="251" height="30" as="alternateBounds" />
          </mxGeometry>
        </mxCell>
        <mxCell id="ffF4CEy4OYEndS1bbZnX-5" value="" style="shape=partialRectangle;collapsible=0;dropTarget=0;pointerEvents=0;fillColor=none;points=[[0,0.5],[1,0.5]];portConstraint=eastwest;top=0;left=0;right=0;bottom=0;" parent="ffF4CEy4OYEndS1bbZnX-1" vertex="1">
          <mxGeometry y="60" width="280" height="90" as="geometry" />
        </mxCell>
        <mxCell id="ffF4CEy4OYEndS1bbZnX-6" value="" style="shape=partialRectangle;overflow=hidden;connectable=0;fillColor=none;top=0;left=0;bottom=0;right=0;" parent="ffF4CEy4OYEndS1bbZnX-5" vertex="1">
          <mxGeometry width="29" height="90" as="geometry">
            <mxRectangle width="29" height="90" as="alternateBounds" />
          </mxGeometry>
        </mxCell>
        <mxCell id="ffF4CEy4OYEndS1bbZnX-7" value="department_address char(50) NOT NULL&#xa;manager_id int&#xa;car_rental_id int" style="shape=partialRectangle;overflow=hidden;connectable=0;fillColor=none;top=0;left=0;bottom=0;right=0;align=left;spacingLeft=6;" parent="ffF4CEy4OYEndS1bbZnX-5" vertex="1">
          <mxGeometry x="29" width="251" height="90" as="geometry">
            <mxRectangle width="251" height="90" as="alternateBounds" />
          </mxGeometry>
        </mxCell>
        <mxCell id="ffF4CEy4OYEndS1bbZnX-8" value="employee" style="shape=table;startSize=30;container=1;collapsible=1;childLayout=tableLayout;fixedRows=1;rowLines=0;fontStyle=1;align=center;resizeLast=1;" parent="1" vertex="1">
          <mxGeometry x="520" y="280" width="280" height="180" as="geometry" />
        </mxCell>
        <mxCell id="ffF4CEy4OYEndS1bbZnX-9" value="" style="shape=partialRectangle;collapsible=0;dropTarget=0;pointerEvents=0;fillColor=none;points=[[0,0.5],[1,0.5]];portConstraint=eastwest;top=0;left=0;right=0;bottom=1;" parent="ffF4CEy4OYEndS1bbZnX-8" vertex="1">
          <mxGeometry y="30" width="280" height="30" as="geometry" />
        </mxCell>
        <mxCell id="ffF4CEy4OYEndS1bbZnX-10" value="PK" style="shape=partialRectangle;overflow=hidden;connectable=0;fillColor=none;top=0;left=0;bottom=0;right=0;fontStyle=1;" parent="ffF4CEy4OYEndS1bbZnX-9" vertex="1">
          <mxGeometry width="29" height="30" as="geometry">
            <mxRectangle width="29" height="30" as="alternateBounds" />
          </mxGeometry>
        </mxCell>
        <mxCell id="ffF4CEy4OYEndS1bbZnX-11" value="employee_id NOT NULL autoincrement" style="shape=partialRectangle;overflow=hidden;connectable=0;fillColor=none;top=0;left=0;bottom=0;right=0;align=left;spacingLeft=6;fontStyle=5;" parent="ffF4CEy4OYEndS1bbZnX-9" vertex="1">
          <mxGeometry x="29" width="251" height="30" as="geometry">
            <mxRectangle width="251" height="30" as="alternateBounds" />
          </mxGeometry>
        </mxCell>
        <mxCell id="ffF4CEy4OYEndS1bbZnX-12" value="" style="shape=partialRectangle;collapsible=0;dropTarget=0;pointerEvents=0;fillColor=none;points=[[0,0.5],[1,0.5]];portConstraint=eastwest;top=0;left=0;right=0;bottom=0;" parent="ffF4CEy4OYEndS1bbZnX-8" vertex="1">
          <mxGeometry y="60" width="280" height="120" as="geometry" />
        </mxCell>
        <mxCell id="ffF4CEy4OYEndS1bbZnX-13" value="" style="shape=partialRectangle;overflow=hidden;connectable=0;fillColor=none;top=0;left=0;bottom=0;right=0;" parent="ffF4CEy4OYEndS1bbZnX-12" vertex="1">
          <mxGeometry width="29" height="120" as="geometry">
            <mxRectangle width="29" height="120" as="alternateBounds" />
          </mxGeometry>
        </mxCell>
        <mxCell id="ffF4CEy4OYEndS1bbZnX-14" value="employee_first_name char(50) NOT NULL&#xa;employee_second_name char(50) NOT NULL&#xa;depatrment_id int" style="shape=partialRectangle;overflow=hidden;connectable=0;fillColor=none;top=0;left=0;bottom=0;right=0;align=left;spacingLeft=6;" parent="ffF4CEy4OYEndS1bbZnX-12" vertex="1">
          <mxGeometry x="29" width="251" height="120" as="geometry">
            <mxRectangle width="251" height="120" as="alternateBounds" />
          </mxGeometry>
        </mxCell>
        <mxCell id="ffF4CEy4OYEndS1bbZnX-20" value="" style="endArrow=ERone;startArrow=ERoneToMany;html=1;rounded=0;endFill=0;startFill=0;" parent="1" edge="1">
          <mxGeometry width="50" height="50" relative="1" as="geometry">
            <mxPoint x="680" y="270" as="sourcePoint" />
            <mxPoint x="680" y="170" as="targetPoint" />
          </mxGeometry>
        </mxCell>
        <mxCell id="ffF4CEy4OYEndS1bbZnX-21" value="car" style="shape=table;startSize=30;container=1;collapsible=1;childLayout=tableLayout;fixedRows=1;rowLines=0;fontStyle=1;align=center;resizeLast=1;" parent="1" vertex="1">
          <mxGeometry x="40" y="390" width="331" height="270" as="geometry" />
        </mxCell>
        <mxCell id="ffF4CEy4OYEndS1bbZnX-22" value="" style="shape=partialRectangle;collapsible=0;dropTarget=0;pointerEvents=0;fillColor=none;points=[[0,0.5],[1,0.5]];portConstraint=eastwest;top=0;left=0;right=0;bottom=1;" parent="ffF4CEy4OYEndS1bbZnX-21" vertex="1">
          <mxGeometry y="30" width="331" height="30" as="geometry" />
        </mxCell>
        <mxCell id="ffF4CEy4OYEndS1bbZnX-23" value="PK" style="shape=partialRectangle;overflow=hidden;connectable=0;fillColor=none;top=0;left=0;bottom=0;right=0;fontStyle=1;" parent="ffF4CEy4OYEndS1bbZnX-22" vertex="1">
          <mxGeometry width="29" height="30" as="geometry">
            <mxRectangle width="29" height="30" as="alternateBounds" />
          </mxGeometry>
        </mxCell>
        <mxCell id="ffF4CEy4OYEndS1bbZnX-24" value="car_id NOT NULL autoincrement" style="shape=partialRectangle;overflow=hidden;connectable=0;fillColor=none;top=0;left=0;bottom=0;right=0;align=left;spacingLeft=6;fontStyle=5;" parent="ffF4CEy4OYEndS1bbZnX-22" vertex="1">
          <mxGeometry x="29" width="302" height="30" as="geometry">
            <mxRectangle width="302" height="30" as="alternateBounds" />
          </mxGeometry>
        </mxCell>
        <mxCell id="ffF4CEy4OYEndS1bbZnX-25" value="" style="shape=partialRectangle;collapsible=0;dropTarget=0;pointerEvents=0;fillColor=none;points=[[0,0.5],[1,0.5]];portConstraint=eastwest;top=0;left=0;right=0;bottom=0;" parent="ffF4CEy4OYEndS1bbZnX-21" vertex="1">
          <mxGeometry y="60" width="331" height="150" as="geometry" />
        </mxCell>
        <mxCell id="ffF4CEy4OYEndS1bbZnX-26" value="" style="shape=partialRectangle;overflow=hidden;connectable=0;fillColor=none;top=0;left=0;bottom=0;right=0;" parent="ffF4CEy4OYEndS1bbZnX-25" vertex="1">
          <mxGeometry width="29" height="150" as="geometry">
            <mxRectangle width="29" height="150" as="alternateBounds" />
          </mxGeometry>
        </mxCell>
        <mxCell id="ffF4CEy4OYEndS1bbZnX-27" value="&#xa;car_brand char(50) NOT NULL&#xa;car_model char (50)NOT NULL&#xa;car_body_type char(50)NOT NULL&#xa;car_year_of_production int NOT NULL&#xa;car_color char(50) NOT NULL&#xa;car_mileage int NOT NULL&#xa;car_status ENUM??&#xa;car_price_per_day int&#xa;car_rental_id int&#xa;" style="shape=partialRectangle;overflow=hidden;connectable=0;fillColor=none;top=0;left=0;bottom=0;right=0;align=left;spacingLeft=6;" parent="ffF4CEy4OYEndS1bbZnX-25" vertex="1">
          <mxGeometry x="29" width="302" height="150" as="geometry">
            <mxRectangle width="302" height="150" as="alternateBounds" />
          </mxGeometry>
        </mxCell>
        <mxCell id="ffF4CEy4OYEndS1bbZnX-28" value="" style="endArrow=ERone;startArrow=ERoneToMany;html=1;rounded=0;endFill=0;startFill=0;" parent="1" source="ffF4CEy4OYEndS1bbZnX-21" edge="1">
          <mxGeometry width="50" height="50" relative="1" as="geometry">
            <mxPoint x="610" y="310" as="sourcePoint" />
            <mxPoint x="200" y="300" as="targetPoint" />
            <Array as="points">
              <mxPoint x="200" y="330" />
            </Array>
          </mxGeometry>
        </mxCell>
        <mxCell id="ffF4CEy4OYEndS1bbZnX-29" value="customer" style="shape=table;startSize=30;container=1;collapsible=1;childLayout=tableLayout;fixedRows=1;rowLines=0;fontStyle=1;align=center;resizeLast=1;" parent="1" vertex="1">
          <mxGeometry x="-400" y="50" width="331" height="190" as="geometry" />
        </mxCell>
        <mxCell id="ffF4CEy4OYEndS1bbZnX-30" value="" style="shape=partialRectangle;collapsible=0;dropTarget=0;pointerEvents=0;fillColor=none;points=[[0,0.5],[1,0.5]];portConstraint=eastwest;top=0;left=0;right=0;bottom=1;" parent="ffF4CEy4OYEndS1bbZnX-29" vertex="1">
          <mxGeometry y="30" width="331" height="30" as="geometry" />
        </mxCell>
        <mxCell id="ffF4CEy4OYEndS1bbZnX-31" value="PK" style="shape=partialRectangle;overflow=hidden;connectable=0;fillColor=none;top=0;left=0;bottom=0;right=0;fontStyle=1;" parent="ffF4CEy4OYEndS1bbZnX-30" vertex="1">
          <mxGeometry width="29" height="30" as="geometry">
            <mxRectangle width="29" height="30" as="alternateBounds" />
          </mxGeometry>
        </mxCell>
        <mxCell id="ffF4CEy4OYEndS1bbZnX-32" value="customer_id NOT NULL autoincrement" style="shape=partialRectangle;overflow=hidden;connectable=0;fillColor=none;top=0;left=0;bottom=0;right=0;align=left;spacingLeft=6;fontStyle=5;" parent="ffF4CEy4OYEndS1bbZnX-30" vertex="1">
          <mxGeometry x="29" width="302" height="30" as="geometry">
            <mxRectangle width="302" height="30" as="alternateBounds" />
          </mxGeometry>
        </mxCell>
        <mxCell id="ffF4CEy4OYEndS1bbZnX-33" value="" style="shape=partialRectangle;collapsible=0;dropTarget=0;pointerEvents=0;fillColor=none;points=[[0,0.5],[1,0.5]];portConstraint=eastwest;top=0;left=0;right=0;bottom=0;" parent="ffF4CEy4OYEndS1bbZnX-29" vertex="1">
          <mxGeometry y="60" width="331" height="130" as="geometry" />
        </mxCell>
        <mxCell id="ffF4CEy4OYEndS1bbZnX-34" value="" style="shape=partialRectangle;overflow=hidden;connectable=0;fillColor=none;top=0;left=0;bottom=0;right=0;" parent="ffF4CEy4OYEndS1bbZnX-33" vertex="1">
          <mxGeometry width="29" height="130" as="geometry">
            <mxRectangle width="29" height="130" as="alternateBounds" />
          </mxGeometry>
        </mxCell>
        <mxCell id="ffF4CEy4OYEndS1bbZnX-35" value="&#xa;customer_first_name char(50) NOT NULL&#xa;customer_second_name char(50)NOT NULL&#xa;customer_email char(50)NOT NULL&#xa;customer_address char(100) NOT NULL&#xa;car_rental id&#xa;" style="shape=partialRectangle;overflow=hidden;connectable=0;fillColor=none;top=0;left=0;bottom=0;right=0;align=left;spacingLeft=6;" parent="ffF4CEy4OYEndS1bbZnX-33" vertex="1">
          <mxGeometry x="29" width="302" height="130" as="geometry">
            <mxRectangle width="302" height="130" as="alternateBounds" />
          </mxGeometry>
        </mxCell>
        <mxCell id="ffF4CEy4OYEndS1bbZnX-36" value="" style="endArrow=ERone;startArrow=ERoneToMany;html=1;rounded=0;endFill=0;startFill=0;entryX=0;entryY=0.5;entryDx=0;entryDy=0;exitX=1;exitY=0.5;exitDx=0;exitDy=0;" parent="1" source="ffF4CEy4OYEndS1bbZnX-33" target="C-vyLk0tnHw3VtMMgP7b-27" edge="1">
          <mxGeometry width="50" height="50" relative="1" as="geometry">
            <mxPoint x="210.7096774193551" y="360" as="sourcePoint" />
            <mxPoint x="210" y="310" as="targetPoint" />
            <Array as="points" />
          </mxGeometry>
        </mxCell>
        <mxCell id="ffF4CEy4OYEndS1bbZnX-37" value="reservation" style="shape=table;startSize=30;container=1;collapsible=1;childLayout=tableLayout;fixedRows=1;rowLines=0;fontStyle=1;align=center;resizeLast=1;" parent="1" vertex="1">
          <mxGeometry x="-400" y="380" width="331" height="190" as="geometry" />
        </mxCell>
        <mxCell id="ffF4CEy4OYEndS1bbZnX-38" value="" style="shape=partialRectangle;collapsible=0;dropTarget=0;pointerEvents=0;fillColor=none;points=[[0,0.5],[1,0.5]];portConstraint=eastwest;top=0;left=0;right=0;bottom=1;" parent="ffF4CEy4OYEndS1bbZnX-37" vertex="1">
          <mxGeometry y="30" width="331" height="30" as="geometry" />
        </mxCell>
        <mxCell id="ffF4CEy4OYEndS1bbZnX-39" value="PK" style="shape=partialRectangle;overflow=hidden;connectable=0;fillColor=none;top=0;left=0;bottom=0;right=0;fontStyle=1;" parent="ffF4CEy4OYEndS1bbZnX-38" vertex="1">
          <mxGeometry width="29" height="30" as="geometry">
            <mxRectangle width="29" height="30" as="alternateBounds" />
          </mxGeometry>
        </mxCell>
        <mxCell id="ffF4CEy4OYEndS1bbZnX-40" value="reservation_id NOT NULL autoincrement" style="shape=partialRectangle;overflow=hidden;connectable=0;fillColor=none;top=0;left=0;bottom=0;right=0;align=left;spacingLeft=6;fontStyle=5;" parent="ffF4CEy4OYEndS1bbZnX-38" vertex="1">
          <mxGeometry x="29" width="302" height="30" as="geometry">
            <mxRectangle width="302" height="30" as="alternateBounds" />
          </mxGeometry>
        </mxCell>
        <mxCell id="ffF4CEy4OYEndS1bbZnX-41" value="" style="shape=partialRectangle;collapsible=0;dropTarget=0;pointerEvents=0;fillColor=none;points=[[0,0.5],[1,0.5]];portConstraint=eastwest;top=0;left=0;right=0;bottom=0;" parent="ffF4CEy4OYEndS1bbZnX-37" vertex="1">
          <mxGeometry y="60" width="331" height="130" as="geometry" />
        </mxCell>
        <mxCell id="ffF4CEy4OYEndS1bbZnX-42" value="" style="shape=partialRectangle;overflow=hidden;connectable=0;fillColor=none;top=0;left=0;bottom=0;right=0;" parent="ffF4CEy4OYEndS1bbZnX-41" vertex="1">
          <mxGeometry width="29" height="130" as="geometry">
            <mxRectangle width="29" height="130" as="alternateBounds" />
          </mxGeometry>
        </mxCell>
        <mxCell id="ffF4CEy4OYEndS1bbZnX-43" value="reservation_booking_date datetime NOT NULL&#xa;reservation_start_date datetime NOT NULL&#xa;reservation_end_date datetime NOT NULL&#xa;customer_id intNOT NULL&#xa;car_id int NOT NULL&#xa;start_department department_id&#xa;destination_department department_id&#xa;reservation_price int NOT NULL" style="shape=partialRectangle;overflow=hidden;connectable=0;fillColor=none;top=0;left=0;bottom=0;right=0;align=left;spacingLeft=6;" parent="ffF4CEy4OYEndS1bbZnX-41" vertex="1">
          <mxGeometry x="29" width="302" height="130" as="geometry">
            <mxRectangle width="302" height="130" as="alternateBounds" />
          </mxGeometry>
        </mxCell>
        <mxCell id="ffF4CEy4OYEndS1bbZnX-44" value="" style="endArrow=ERone;startArrow=ERoneToMany;html=1;rounded=0;endFill=0;startFill=0;entryX=0.658;entryY=1.005;entryDx=0;entryDy=0;exitX=0.654;exitY=-0.007;exitDx=0;exitDy=0;exitPerimeter=0;entryPerimeter=0;" parent="1" source="ffF4CEy4OYEndS1bbZnX-37" target="ffF4CEy4OYEndS1bbZnX-33" edge="1">
          <mxGeometry width="50" height="50" relative="1" as="geometry">
            <mxPoint x="-59.00000000000023" y="185" as="sourcePoint" />
            <mxPoint x="50" y="185" as="targetPoint" />
            <Array as="points" />
          </mxGeometry>
        </mxCell>
        <mxCell id="83S_Qvz8eTO_pFnLo7iG-1" value="Booking" style="shape=table;startSize=30;container=1;collapsible=1;childLayout=tableLayout;fixedRows=1;rowLines=0;fontStyle=1;align=center;resizeLast=1;" parent="1" vertex="1">
          <mxGeometry x="-400" y="680" width="331" height="190" as="geometry" />
        </mxCell>
        <mxCell id="83S_Qvz8eTO_pFnLo7iG-2" value="" style="shape=partialRectangle;collapsible=0;dropTarget=0;pointerEvents=0;fillColor=none;points=[[0,0.5],[1,0.5]];portConstraint=eastwest;top=0;left=0;right=0;bottom=1;" parent="83S_Qvz8eTO_pFnLo7iG-1" vertex="1">
          <mxGeometry y="30" width="331" height="30" as="geometry" />
        </mxCell>
        <mxCell id="83S_Qvz8eTO_pFnLo7iG-3" value="PK" style="shape=partialRectangle;overflow=hidden;connectable=0;fillColor=none;top=0;left=0;bottom=0;right=0;fontStyle=1;" parent="83S_Qvz8eTO_pFnLo7iG-2" vertex="1">
          <mxGeometry width="29" height="30" as="geometry">
            <mxRectangle width="29" height="30" as="alternateBounds" />
          </mxGeometry>
        </mxCell>
        <mxCell id="83S_Qvz8eTO_pFnLo7iG-4" value="booking_id NOT NULL autoincrement" style="shape=partialRectangle;overflow=hidden;connectable=0;fillColor=none;top=0;left=0;bottom=0;right=0;align=left;spacingLeft=6;fontStyle=5;" parent="83S_Qvz8eTO_pFnLo7iG-2" vertex="1">
          <mxGeometry x="29" width="302" height="30" as="geometry">
            <mxRectangle width="302" height="30" as="alternateBounds" />
          </mxGeometry>
        </mxCell>
        <mxCell id="83S_Qvz8eTO_pFnLo7iG-5" value="" style="shape=partialRectangle;collapsible=0;dropTarget=0;pointerEvents=0;fillColor=none;points=[[0,0.5],[1,0.5]];portConstraint=eastwest;top=0;left=0;right=0;bottom=0;" parent="83S_Qvz8eTO_pFnLo7iG-1" vertex="1">
          <mxGeometry y="60" width="331" height="130" as="geometry" />
        </mxCell>
        <mxCell id="83S_Qvz8eTO_pFnLo7iG-6" value="" style="shape=partialRectangle;overflow=hidden;connectable=0;fillColor=none;top=0;left=0;bottom=0;right=0;" parent="83S_Qvz8eTO_pFnLo7iG-5" vertex="1">
          <mxGeometry width="29" height="130" as="geometry">
            <mxRectangle width="29" height="130" as="alternateBounds" />
          </mxGeometry>
        </mxCell>
        <mxCell id="83S_Qvz8eTO_pFnLo7iG-7" value="employee_id NOT NULL autoincrement&#xa;reservation_start_date datetime NOT NULL&#xa;reservation_id NOT NULL autoincrement&#xa;comments_&#xa;" style="shape=partialRectangle;overflow=hidden;connectable=0;fillColor=none;top=0;left=0;bottom=0;right=0;align=left;spacingLeft=6;" parent="83S_Qvz8eTO_pFnLo7iG-5" vertex="1">
          <mxGeometry x="29" width="302" height="130" as="geometry">
            <mxRectangle width="302" height="130" as="alternateBounds" />
          </mxGeometry>
        </mxCell>
        <mxCell id="83S_Qvz8eTO_pFnLo7iG-8" value="" style="endArrow=ERone;startArrow=ERoneToMany;html=1;rounded=0;endFill=0;startFill=0;entryX=0.658;entryY=1.005;entryDx=0;entryDy=0;exitX=0.654;exitY=-0.007;exitDx=0;exitDy=0;exitPerimeter=0;entryPerimeter=0;" parent="1" edge="1">
          <mxGeometry width="50" height="50" relative="1" as="geometry">
            <mxPoint x="-183.52600000000007" y="378.66999999999996" as="sourcePoint" />
            <mxPoint x="-182.202" y="240.6500000000001" as="targetPoint" />
            <Array as="points" />
          </mxGeometry>
        </mxCell>
        <mxCell id="83S_Qvz8eTO_pFnLo7iG-9" value="" style="endArrow=ERone;startArrow=ERoneToMany;html=1;rounded=0;endFill=0;startFill=0;entryX=0.658;entryY=1.005;entryDx=0;entryDy=0;exitX=0.5;exitY=0;exitDx=0;exitDy=0;entryPerimeter=0;" parent="1" source="83S_Qvz8eTO_pFnLo7iG-1" edge="1">
          <mxGeometry width="50" height="50" relative="1" as="geometry">
            <mxPoint x="-235.16600000000005" y="708.02" as="sourcePoint" />
            <mxPoint x="-233.84199999999998" y="570.0000000000001" as="targetPoint" />
            <Array as="points" />
          </mxGeometry>
        </mxCell>
        <mxCell id="83S_Qvz8eTO_pFnLo7iG-10" value="Return" style="shape=table;startSize=30;container=1;collapsible=1;childLayout=tableLayout;fixedRows=1;rowLines=0;fontStyle=1;align=center;resizeLast=1;" parent="1" vertex="1">
          <mxGeometry x="-770" y="680" width="331" height="190" as="geometry" />
        </mxCell>
        <mxCell id="83S_Qvz8eTO_pFnLo7iG-11" value="" style="shape=partialRectangle;collapsible=0;dropTarget=0;pointerEvents=0;fillColor=none;points=[[0,0.5],[1,0.5]];portConstraint=eastwest;top=0;left=0;right=0;bottom=1;" parent="83S_Qvz8eTO_pFnLo7iG-10" vertex="1">
          <mxGeometry y="30" width="331" height="30" as="geometry" />
        </mxCell>
        <mxCell id="83S_Qvz8eTO_pFnLo7iG-12" value="PK" style="shape=partialRectangle;overflow=hidden;connectable=0;fillColor=none;top=0;left=0;bottom=0;right=0;fontStyle=1;" parent="83S_Qvz8eTO_pFnLo7iG-11" vertex="1">
          <mxGeometry width="29" height="30" as="geometry">
            <mxRectangle width="29" height="30" as="alternateBounds" />
          </mxGeometry>
        </mxCell>
        <mxCell id="83S_Qvz8eTO_pFnLo7iG-13" value="return_id NOT NULL autoincrement" style="shape=partialRectangle;overflow=hidden;connectable=0;fillColor=none;top=0;left=0;bottom=0;right=0;align=left;spacingLeft=6;fontStyle=5;" parent="83S_Qvz8eTO_pFnLo7iG-11" vertex="1">
          <mxGeometry x="29" width="302" height="30" as="geometry">
            <mxRectangle width="302" height="30" as="alternateBounds" />
          </mxGeometry>
        </mxCell>
        <mxCell id="83S_Qvz8eTO_pFnLo7iG-14" value="" style="shape=partialRectangle;collapsible=0;dropTarget=0;pointerEvents=0;fillColor=none;points=[[0,0.5],[1,0.5]];portConstraint=eastwest;top=0;left=0;right=0;bottom=0;" parent="83S_Qvz8eTO_pFnLo7iG-10" vertex="1">
          <mxGeometry y="60" width="331" height="130" as="geometry" />
        </mxCell>
        <mxCell id="83S_Qvz8eTO_pFnLo7iG-15" value="" style="shape=partialRectangle;overflow=hidden;connectable=0;fillColor=none;top=0;left=0;bottom=0;right=0;" parent="83S_Qvz8eTO_pFnLo7iG-14" vertex="1">
          <mxGeometry width="29" height="130" as="geometry">
            <mxRectangle width="29" height="130" as="alternateBounds" />
          </mxGeometry>
        </mxCell>
        <mxCell id="83S_Qvz8eTO_pFnLo7iG-16" value="employee_id NOT NULL autoincrement&#xa;return_date datetime NOT NULL&#xa;reservation_id NOT NULL autoincrement&#xa;extra_charge int&#xa;comments_&#xa;" style="shape=partialRectangle;overflow=hidden;connectable=0;fillColor=none;top=0;left=0;bottom=0;right=0;align=left;spacingLeft=6;" parent="83S_Qvz8eTO_pFnLo7iG-14" vertex="1">
          <mxGeometry x="29" width="302" height="130" as="geometry">
            <mxRectangle width="302" height="130" as="alternateBounds" />
          </mxGeometry>
        </mxCell>
        <mxCell id="83S_Qvz8eTO_pFnLo7iG-17" value="" style="endArrow=ERone;startArrow=ERoneToMany;html=1;rounded=0;endFill=0;startFill=0;entryX=0.497;entryY=1.016;entryDx=0;entryDy=0;entryPerimeter=0;" parent="1" target="ffF4CEy4OYEndS1bbZnX-41" edge="1">
          <mxGeometry width="50" height="50" relative="1" as="geometry">
            <mxPoint x="-610" y="670" as="sourcePoint" />
            <mxPoint x="-223.8420000000001" y="580.0000000000001" as="targetPoint" />
            <Array as="points" />
          </mxGeometry>
        </mxCell>
        <mxCell id="83S_Qvz8eTO_pFnLo7iG-19" value="incomers" style="shape=table;startSize=30;container=1;collapsible=1;childLayout=tableLayout;fixedRows=1;rowLines=0;fontStyle=1;align=center;resizeLast=1;" parent="1" vertex="1">
          <mxGeometry x="-800" y="270" width="331" height="190" as="geometry" />
        </mxCell>
        <mxCell id="83S_Qvz8eTO_pFnLo7iG-20" value="" style="shape=partialRectangle;collapsible=0;dropTarget=0;pointerEvents=0;fillColor=none;points=[[0,0.5],[1,0.5]];portConstraint=eastwest;top=0;left=0;right=0;bottom=1;" parent="83S_Qvz8eTO_pFnLo7iG-19" vertex="1">
          <mxGeometry y="30" width="331" height="30" as="geometry" />
        </mxCell>
        <mxCell id="83S_Qvz8eTO_pFnLo7iG-21" value="PK" style="shape=partialRectangle;overflow=hidden;connectable=0;fillColor=none;top=0;left=0;bottom=0;right=0;fontStyle=1;" parent="83S_Qvz8eTO_pFnLo7iG-20" vertex="1">
          <mxGeometry width="29" height="30" as="geometry">
            <mxRectangle width="29" height="30" as="alternateBounds" />
          </mxGeometry>
        </mxCell>
        <mxCell id="83S_Qvz8eTO_pFnLo7iG-22" value="" style="shape=partialRectangle;overflow=hidden;connectable=0;fillColor=none;top=0;left=0;bottom=0;right=0;align=left;spacingLeft=6;fontStyle=5;" parent="83S_Qvz8eTO_pFnLo7iG-20" vertex="1">
          <mxGeometry x="29" width="302" height="30" as="geometry">
            <mxRectangle width="302" height="30" as="alternateBounds" />
          </mxGeometry>
        </mxCell>
        <mxCell id="83S_Qvz8eTO_pFnLo7iG-23" value="" style="shape=partialRectangle;collapsible=0;dropTarget=0;pointerEvents=0;fillColor=none;points=[[0,0.5],[1,0.5]];portConstraint=eastwest;top=0;left=0;right=0;bottom=0;" parent="83S_Qvz8eTO_pFnLo7iG-19" vertex="1">
          <mxGeometry y="60" width="331" height="130" as="geometry" />
        </mxCell>
        <mxCell id="83S_Qvz8eTO_pFnLo7iG-24" value="" style="shape=partialRectangle;overflow=hidden;connectable=0;fillColor=none;top=0;left=0;bottom=0;right=0;" parent="83S_Qvz8eTO_pFnLo7iG-23" vertex="1">
          <mxGeometry width="29" height="130" as="geometry">
            <mxRectangle width="29" height="130" as="alternateBounds" />
          </mxGeometry>
        </mxCell>
        <mxCell id="83S_Qvz8eTO_pFnLo7iG-25" value="" style="shape=partialRectangle;overflow=hidden;connectable=0;fillColor=none;top=0;left=0;bottom=0;right=0;align=left;spacingLeft=6;" parent="83S_Qvz8eTO_pFnLo7iG-23" vertex="1">
          <mxGeometry x="29" width="302" height="130" as="geometry">
            <mxRectangle width="302" height="130" as="alternateBounds" />
          </mxGeometry>
        </mxCell>
        <mxCell id="83S_Qvz8eTO_pFnLo7iG-26" value="&lt;b&gt;&lt;font style=&quot;font-size: 19px;&quot;&gt;N : 1&lt;/font&gt;&lt;/b&gt;" style="whiteSpace=wrap;html=1;aspect=fixed;" parent="1" vertex="1">
          <mxGeometry x="-30" y="122.5" width="45" height="45" as="geometry" />
        </mxCell>
        <mxCell id="83S_Qvz8eTO_pFnLo7iG-27" value="&lt;b&gt;&lt;font style=&quot;font-size: 19px;&quot;&gt;1 : N&lt;br&gt;&lt;/font&gt;&lt;/b&gt;" style="whiteSpace=wrap;html=1;aspect=fixed;" parent="1" vertex="1">
          <mxGeometry x="422" y="50" width="45" height="45" as="geometry" />
        </mxCell>
        <mxCell id="83S_Qvz8eTO_pFnLo7iG-28" value="&lt;b&gt;&lt;font style=&quot;font-size: 19px;&quot;&gt;1 : N&lt;br&gt;&lt;/font&gt;&lt;/b&gt;" style="whiteSpace=wrap;html=1;aspect=fixed;" parent="1" vertex="1">
          <mxGeometry x="690" y="195" width="45" height="45" as="geometry" />
        </mxCell>
        <mxCell id="83S_Qvz8eTO_pFnLo7iG-29" value="&lt;b&gt;&lt;font style=&quot;font-size: 19px;&quot;&gt;1 : N&lt;br&gt;&lt;/font&gt;&lt;/b&gt;" style="whiteSpace=wrap;html=1;aspect=fixed;" parent="1" vertex="1">
          <mxGeometry x="210" y="330" width="45" height="45" as="geometry" />
        </mxCell>
        <mxCell id="83S_Qvz8eTO_pFnLo7iG-30" value="&lt;b&gt;&lt;font style=&quot;font-size: 19px;&quot;&gt;1 : N&lt;br&gt;&lt;/font&gt;&lt;/b&gt;" style="whiteSpace=wrap;html=1;aspect=fixed;" parent="1" vertex="1">
          <mxGeometry x="-170" y="280" width="45" height="45" as="geometry" />
        </mxCell>
        <mxCell id="83S_Qvz8eTO_pFnLo7iG-31" value="&lt;b&gt;&lt;font style=&quot;font-size: 19px;&quot;&gt;1 : 1&lt;br&gt;&lt;/font&gt;&lt;/b&gt;" style="whiteSpace=wrap;html=1;aspect=fixed;" parent="1" vertex="1">
          <mxGeometry x="-215" y="600" width="45" height="45" as="geometry" />
        </mxCell>
        <mxCell id="83S_Qvz8eTO_pFnLo7iG-32" value="&lt;b&gt;&lt;font style=&quot;font-size: 19px;&quot;&gt;1 : 1&lt;br&gt;&lt;/font&gt;&lt;/b&gt;" style="whiteSpace=wrap;html=1;aspect=fixed;" parent="1" vertex="1">
          <mxGeometry x="-490" y="590" width="45" height="45" as="geometry" />
        </mxCell>
        <mxCell id="HAr1eVL4kILyptZjQsI--1" value="carStatusHistory" style="shape=table;startSize=30;container=1;collapsible=1;childLayout=tableLayout;fixedRows=1;rowLines=0;fontStyle=1;align=center;resizeLast=1;" vertex="1" parent="1">
          <mxGeometry x="39" y="750" width="331" height="140" as="geometry" />
        </mxCell>
        <mxCell id="HAr1eVL4kILyptZjQsI--2" value="" style="shape=partialRectangle;collapsible=0;dropTarget=0;pointerEvents=0;fillColor=none;points=[[0,0.5],[1,0.5]];portConstraint=eastwest;top=0;left=0;right=0;bottom=1;" vertex="1" parent="HAr1eVL4kILyptZjQsI--1">
          <mxGeometry y="30" width="331" height="30" as="geometry" />
        </mxCell>
        <mxCell id="HAr1eVL4kILyptZjQsI--3" value="PK" style="shape=partialRectangle;overflow=hidden;connectable=0;fillColor=none;top=0;left=0;bottom=0;right=0;fontStyle=1;" vertex="1" parent="HAr1eVL4kILyptZjQsI--2">
          <mxGeometry width="29" height="30" as="geometry">
            <mxRectangle width="29" height="30" as="alternateBounds" />
          </mxGeometry>
        </mxCell>
        <mxCell id="HAr1eVL4kILyptZjQsI--4" value="car_status_history_id NOT NULL autoincrement" style="shape=partialRectangle;overflow=hidden;connectable=0;fillColor=none;top=0;left=0;bottom=0;right=0;align=left;spacingLeft=6;fontStyle=5;" vertex="1" parent="HAr1eVL4kILyptZjQsI--2">
          <mxGeometry x="29" width="302" height="30" as="geometry">
            <mxRectangle width="302" height="30" as="alternateBounds" />
          </mxGeometry>
        </mxCell>
        <mxCell id="HAr1eVL4kILyptZjQsI--5" value="" style="shape=partialRectangle;collapsible=0;dropTarget=0;pointerEvents=0;fillColor=none;points=[[0,0.5],[1,0.5]];portConstraint=eastwest;top=0;left=0;right=0;bottom=0;" vertex="1" parent="HAr1eVL4kILyptZjQsI--1">
          <mxGeometry y="60" width="331" height="80" as="geometry" />
        </mxCell>
        <mxCell id="HAr1eVL4kILyptZjQsI--6" value="" style="shape=partialRectangle;overflow=hidden;connectable=0;fillColor=none;top=0;left=0;bottom=0;right=0;" vertex="1" parent="HAr1eVL4kILyptZjQsI--5">
          <mxGeometry width="29" height="80" as="geometry">
            <mxRectangle width="29" height="80" as="alternateBounds" />
          </mxGeometry>
        </mxCell>
        <mxCell id="HAr1eVL4kILyptZjQsI--7" value="&#xa;start_date Date NOT NULL&#xa;end_date Date &#xa;car_status CarStatus NOT NULL&#xa;&#xa;&#xa;&#xa;&#xa;" style="shape=partialRectangle;overflow=hidden;connectable=0;fillColor=none;top=0;left=0;bottom=0;right=0;align=left;spacingLeft=6;" vertex="1" parent="HAr1eVL4kILyptZjQsI--5">
          <mxGeometry x="29" width="302" height="80" as="geometry">
            <mxRectangle width="302" height="80" as="alternateBounds" />
          </mxGeometry>
        </mxCell>
        <mxCell id="HAr1eVL4kILyptZjQsI--8" value="" style="endArrow=ERone;startArrow=ERoneToMany;html=1;rounded=0;endFill=0;startFill=0;" edge="1" parent="1">
          <mxGeometry width="50" height="50" relative="1" as="geometry">
            <mxPoint x="182" y="750" as="sourcePoint" />
            <mxPoint x="180" y="660" as="targetPoint" />
            <Array as="points">
              <mxPoint x="180" y="690" />
            </Array>
          </mxGeometry>
        </mxCell>
        <mxCell id="HAr1eVL4kILyptZjQsI--9" value="&lt;b&gt;&lt;font style=&quot;font-size: 19px;&quot;&gt;1 : N&lt;br&gt;&lt;/font&gt;&lt;/b&gt;" style="whiteSpace=wrap;html=1;aspect=fixed;" vertex="1" parent="1">
          <mxGeometry x="200" y="690" width="45" height="45" as="geometry" />
        </mxCell>
      </root>
    </mxGraphModel>
  </diagram>
</mxfile>
